# xmcd
#
# Track frame offsets: 
#        150
#        14305
#        27674
#        42088
#        56850
#        68443
#        82663
#        97496
#        110339
#        122167
#        139827
#        155410
#        174241
#        188857
#        205326
#        228414
#
# Disc length: 3313 seconds
#
# Revision: 0
# Processed by: cddbd v1.5.2PL0 Copyright (c) Steve Scherf et al.
# Submitted via: ExactAudioCopyFreeDBPlugin 1.0
#
DISCID=d70cef10
DTITLE=由紀さおり - GOLDEN*BEST
DYEAR=2012
DGENRE=Other
TTITLE0=夜明けのスキャット
TTITLE1=手紙
TTITLE2=生きがい
TTITLE3=ルームライト（室内灯）
TTITLE4=恋文
TTITLE5=挽歌
TTITLE6=う・ふ・ふ
TTITLE7=天使のスキャット
TTITLE8=タ・ヤ・タン
TTITLE9=TOKYOワルツ
TTITLE10=この愛を永遠に
TTITLE11=ゆらゆら
TTITLE12=男ともだち
TTITLE13=両国橋
TTITLE14=スイートワルツの流れる川に
TTITLE15=この世の果てまでそばにいて
EXTD=
EXTT0=
EXTT1=
EXTT2=
EXTT3=
EXTT4=
EXTT5=
EXTT6=
EXTT7=
EXTT8=
EXTT9=
EXTT10=
EXTT11=
EXTT12=
EXTT13=
EXTT14=
EXTT15=
PLAYORDER=
